# xmcd
#
# Track frame offsets:
#	150
#	11515
#	35720
#	47260
#	63247
#	73390
#	83380
#	95890
#	112072
#	122742
#	135997
#	144910
#	155727
#	168627
#	181870
#	194412
#	206010
#	217167
#	229427
#	248850
#	262267
#	274745
#	288057
#	303857
#	314595
#
# Disc length: 4349 seconds
#
# Revision: 2
# Processed by: cddbd v1.5.2PL0 Copyright (c) Steve Scherf et al.
# Submitted via: audiograbber 1.83.01
#
DISCID=7c10fb19
DTITLE=Wilbert Harrison - Kansas City - Golden Classics
DYEAR=1994
DGENRE=Oldies
TTITLE0=Kansas City
TTITLE1=Let's Work Together - Parts 1 and 2
TTITLE2=Don't Drop It
TTITLE3=Stagger Lee
TTITLE4=C.C. Rider
TTITLE5=Cheatin' Baby
TTITLE6=The Horse
TTITLE7=Stand By Me
TTITLE8=Since I Fell For You
TTITLE9=Have Some Fun
TTITLE10=My Love
TTITLE11=1960
TTITLE12=Blue Monday
TTITLE13=Don't Wreck My Life
TTITLE14=Why Did You Leave?
TTITLE15=Walking By The River
TTITLE16=Da-De-Ya-Da
TTITLE17=Listen My Darling
TTITLE18=Forgive Me
TTITLE19=Pretty Little Woman
TTITLE20=Poison Ivy
TTITLE21=A Woman In Trouble
TTITLE22=It Took A Long Time
TTITLE23=Messed Around And Fell In Love
TTITLE24=Goodbye Kansas City
EXTD=
EXTT0=
EXTT1=
EXTT2=
EXTT3=
EXTT4=
EXTT5=
EXTT6=
EXTT7=
EXTT8=
EXTT9=
EXTT10=
EXTT11=
EXTT12=
EXTT13=
EXTT14=
EXTT15=
EXTT16=
EXTT17=
EXTT18=
EXTT19=
EXTT20=
EXTT21=
EXTT22=
EXTT23=
EXTT24=
PLAYORDER=
